# xmcd
#
# Track frame offsets:
#	150
#	21240
#	40007
#	53220
#	75610
#	86475
#	95902
#	110415
#	127290
#	140452
#	168900
#	199462
#	214215
#	246102
#
# Disc length: 3748 seconds
#
# Revision: 1
# Processed by: cddbd v1.5.1PL0 Copyright (c) Steve Scherf et al.
# Submitted via: CDex 1.50Beta5
#
DISCID=ca0ea20e
DTITLE=さまざまなアーティスト - JAZZ SCREEN HITS
DYEAR=1900
DGENRE=Jazz
TTITLE0=HOLLY COLE/CALLING YOU
TTITLE1=McCOY TYNER/WHEN I FALL IN LOVE
TTITLE2=NAT KING COLE/NATURE BOY
TTITLE3=FREDDIE ROACH/UNCHAINED MELODY
TTITLE4=MEL TORME/A TIME FOR US
TTITLE5=LAURINDO ALMEIDA/MOON RIVER
TTITLE6=JULIE LONDON/AS TIME GOES BY
TTITLE7=TOMMY FLANAGAN/TONIGHT
TTITLE8=NAT KING COLE/SMILE
TTITLE9=LEE MORGAN/SUNRISE SUNSET
TTITLE10=DUKE JORDAN/SI JOYA
TTITLE11=NAT KING COLE/STARDUST
TTITLE12=GRANT GREEN/EXODUS
TTITLE13=HERBIE HANCOCK/'ROUND MIDNIGHT
EXTD=
EXTT0=
EXTT1=
EXTT2=
EXTT3=
EXTT4=
EXTT5=
EXTT6=
EXTT7=
EXTT8=
EXTT9=
EXTT10=
EXTT11=
EXTT12=
EXTT13=
PLAYORDER=
